<svg fill="none" height="18" viewBox="0 0 17 18" width="17" xmlns="http://www.w3.org/2000/svg"><g stroke="#647787"><g stroke-linejoin="round" stroke-miterlimit="10"><path d="m3.18182 14.0909v-13.0909h13.09088v13.0909c0 .7715-.3065 1.5115-.852 2.057-.5456.5456-1.2855.8521-2.0571.8521" stroke-linecap="round"/><path d="m10.4545 14.0909h-9.4545c0 .7716.30649 1.5115.85205 2.057.54556.5456 1.2855.8521 2.05704.8521h9.45451c-.7715 0-1.5114-.3065-2.057-.8521-.5456-.5455-.8521-1.2854-.8521-2.057z" stroke-linecap="round"/><path d="m9 7.54544h4.3636"/><path d="m6.09088 7.54544h1.45455"/><path d="m9 10.4546h4.3636"/><path d="m6.09088 10.4546h1.45455"/><path d="m9 4.63635h4.3636"/><path d="m6.09088 4.63635h1.45455"/></g><path d="m9.9914 14.5909c.1065.7185.4407 1.389.9601 1.9091h-7.04241c-.63893 0-1.25169-.2538-1.70348-.7056-.33205-.3321-.55716-.7511-.65316-1.2035z" fill="#647787"/></g></svg>